<svg xmlns="http://www.w3.org/2000/svg" viewBox="0 0 1191 181"><style>.st0{display:none}.st1{display:inline}.st2{fill:#19213e}.st3{fill:#0769fc}.st4{fill:#db324d}.st5{fill:#fff}</style><g id="Logo_x5F_Black" class="st0"><g class="st1"><path class="st2" d="M72.6 19.1h24.8L156.5 155h-33.8L111 126.2 85 62l-38.2 93h-33L72.6 19.1zM813.6 19.1h24.8L897.5 155h-33.8L852 126.2 826 62l-38.2 93h-33l58.8-135.9zM170.1 19.1h50.5c7 0 13.7.6 20 1.9 6.3 1.3 11.7 3.5 16.4 6.6 4.7 3.1 8.4 7.4 11.1 12.7 2.8 5.3 4.1 12 4.1 20.1 0 7.9-1.3 14.6-3.8 20-2.6 5.4-6.1 9.7-10.6 12.9-4.5 3.2-9.8 5.5-15.9 6.8-6.1 1.3-12.8 2-20 2H200v53h-30v-136zM200 76.7h20c2.7 0 5.3-.3 7.8-.8s4.7-1.4 6.7-2.6c2-1.2 3.6-2.9 4.8-5 1.2-2.1 1.8-4.8 1.8-8 0-3.5-.8-6.2-2.4-8.4-1.6-2.1-3.6-3.7-6.1-4.9-2.5-1.2-5.3-1.9-8.4-2.2-3.1-.3-6-.5-8.8-.5H200v32.4zM292.2 19.1h30v56.4L375 19.1h39.2l-60.5 63.2 65.7 72.8h-41.9l-55.3-64.5V155h-30V19.1zM535.5 103c-.2.5-.4 1.1-.6 1.6-2 5.3-4.8 9.9-8.5 13.8-3.7 3.9-8.2 7-13.3 9.1-5.2 2.2-11 3.3-17.4 3.3-6.4 0-12.2-1.1-17.4-3.3-5.2-2.2-9.6-5.2-13.3-9.1-3.7-3.9-6.6-8.5-8.5-13.8-.2-.5-.4-1.1-.6-1.6h-32.1c.9 4.8 2.2 9.3 4 13.6 3.7 8.8 8.7 16.4 15.3 22.6 6.5 6.2 14.3 11 23.2 14.3 9 3.3 18.8 5 29.4 5 10.6 0 20.4-1.7 29.4-5s16.7-8.1 23.2-14.3c6.5-6.2 11.6-13.7 15.3-22.6 1.8-4.3 3.1-8.8 4-13.6h-32.1zM465 55.6c3.7-3.9 8.2-6.9 13.3-9.1 5.2-2.2 11-3.3 17.4-3.3 6.4 0 12.2 1.1 17.4 3.3 5.2 2.2 9.6 5.2 13.3 9.1 3.1 3.3 5.6 7.1 7.5 11.4h32.8c-.8-3.3-1.9-6.5-3.1-9.5-3.6-8.8-8.7-16.4-15.3-22.6-6.5-6.2-14.3-11-23.2-14.3-9-3.3-18.8-5-29.4-5-10.6 0-20.4 1.7-29.4 5s-16.7 8.1-23.2 14.3c-6.5 6.2-11.6 13.7-15.3 22.6-1.3 3.1-2.3 6.2-3.1 9.5h32.8c1.9-4.3 4.4-8.1 7.5-11.4zM589.4 19.1h45.3l31.3 88.7h.4l31.5-88.7H743V155h-30V50.7h-.4L677 155h-22.8L619.8 50.7h-.4V155h-30V19.1zM921.6 45.6h-38.8V19.1h107.5v26.5h-38.8V155h-30V45.6zM1005.1 19.1h30V155h-30V19.1zM1152.6 116.2c-3.1 4.6-7 8.2-11.7 10.8-4.7 2.6-10.2 3.8-16.3 3.8-5.4 0-10.4-1.1-15.1-3.3-4.7-2.2-8.7-5.2-12.2-9.1-3.4-3.8-6-8.3-8-13.4h-32.4c.9 4 2.1 7.9 3.6 11.6 3.7 8.8 8.7 16.4 15.3 22.6 6.5 6.2 14.3 11 23.2 14.3 9 3.3 18.8 5 29.4 5 9.3 0 18.4-1.9 27.3-5.8 8.8-3.8 16.1-9.8 21.9-17.9l-25-18.6zm-55.3-60.6c3.5-3.9 7.7-6.9 12.5-9.1 4.8-2.2 10-3.3 15.6-3.3s10.6 1 14.9 2.9c4.3 1.9 7.9 4.7 10.8 8.2l23-18.8c-2.9-3.7-6.3-6.9-10-9.4-3.7-2.6-7.6-4.6-11.6-6.1s-8.1-2.7-12.3-3.4c-4.2-.7-8.2-1-12-1-10.6 0-20.4 1.7-29.4 5s-16.7 8.1-23.2 14.3c-6.5 6.2-11.6 13.7-15.3 22.6-1.5 3.7-2.7 7.5-3.6 11.5h32.4c2.2-5.1 4.8-9.6 8.2-13.4z"/></g></g><g id="Logo_x5F_Blue" class="st0"><g class="st1"><path class="st3" d="M72.6 19.1h24.8L156.5 155h-33.8L111 126.2 85 62l-38.2 93h-33L72.6 19.1zM813.6 19.1h24.8L897.5 155h-33.8L852 126.2 826 62l-38.2 93h-33l58.8-135.9zM170.1 19.1h50.5c7 0 13.7.6 20 1.9 6.3 1.3 11.7 3.5 16.4 6.6 4.7 3.1 8.4 7.4 11.1 12.7 2.8 5.3 4.1 12 4.1 20.1 0 7.9-1.3 14.6-3.8 20-2.6 5.4-6.1 9.7-10.6 12.9-4.5 3.2-9.8 5.5-15.9 6.8-6.1 1.3-12.8 2-20 2H200v53h-30v-136zM200 76.7h20c2.7 0 5.3-.3 7.8-.8s4.7-1.4 6.7-2.6c2-1.2 3.6-2.9 4.8-5 1.2-2.1 1.8-4.8 1.8-8 0-3.5-.8-6.2-2.4-8.4-1.6-2.1-3.6-3.7-6.1-4.9-2.5-1.2-5.3-1.9-8.4-2.2-3.1-.3-6-.5-8.8-.5H200v32.4zM292.2 19.1h30v56.4L375 19.1h39.2l-60.5 63.2 65.7 72.8h-41.9l-55.3-64.5V155h-30V19.1zM535.5 103c-.2.5-.4 1.1-.6 1.6-2 5.3-4.8 9.9-8.5 13.8-3.7 3.9-8.2 7-13.3 9.1-5.2 2.2-11 3.3-17.4 3.3-6.4 0-12.2-1.1-17.4-3.3-5.2-2.2-9.6-5.2-13.3-9.1-3.7-3.9-6.6-8.5-8.5-13.8-.2-.5-.4-1.1-.6-1.6h-32.1c.9 4.8 2.2 9.3 4 13.6 3.7 8.8 8.7 16.4 15.3 22.6 6.5 6.2 14.3 11 23.2 14.3 9 3.3 18.8 5 29.4 5 10.6 0 20.4-1.7 29.4-5s16.7-8.1 23.2-14.3c6.5-6.2 11.6-13.7 15.3-22.6 1.8-4.3 3.1-8.8 4-13.6h-32.1zM465 55.6c3.7-3.9 8.2-6.9 13.3-9.1 5.2-2.2 11-3.3 17.4-3.3 6.4 0 12.2 1.1 17.4 3.3 5.2 2.2 9.6 5.2 13.3 9.1 3.1 3.3 5.6 7.1 7.5 11.4h32.8c-.8-3.3-1.9-6.5-3.1-9.5-3.6-8.8-8.7-16.4-15.3-22.6-6.5-6.2-14.3-11-23.2-14.3-9-3.3-18.8-5-29.4-5-10.6 0-20.4 1.7-29.4 5s-16.7 8.1-23.2 14.3c-6.5 6.2-11.6 13.7-15.3 22.6-1.3 3.1-2.3 6.2-3.1 9.5h32.8c1.9-4.3 4.4-8.1 7.5-11.4zM589.4 19.1h45.3l31.3 88.7h.4l31.5-88.7H743V155h-30V50.7h-.4L677 155h-22.8L619.8 50.7h-.4V155h-30V19.1zM921.6 45.6h-38.8V19.1h107.5v26.5h-38.8V155h-30V45.6zM1005.1 19.1h30V155h-30V19.1zM1152.6 116.2c-3.1 4.6-7 8.2-11.7 10.8-4.7 2.6-10.2 3.8-16.3 3.8-5.4 0-10.4-1.1-15.1-3.3-4.7-2.2-8.7-5.2-12.2-9.1-3.4-3.8-6-8.3-8-13.4h-32.4c.9 4 2.1 7.9 3.6 11.6 3.7 8.8 8.7 16.4 15.3 22.6 6.5 6.2 14.3 11 23.2 14.3 9 3.3 18.8 5 29.4 5 9.3 0 18.4-1.9 27.3-5.8 8.8-3.8 16.1-9.8 21.9-17.9l-25-18.6zm-55.3-60.6c3.5-3.9 7.7-6.9 12.5-9.1 4.8-2.2 10-3.3 15.6-3.3s10.6 1 14.9 2.9c4.3 1.9 7.9 4.7 10.8 8.2l23-18.8c-2.9-3.7-6.3-6.9-10-9.4-3.7-2.6-7.6-4.6-11.6-6.1s-8.1-2.7-12.3-3.4c-4.2-.7-8.2-1-12-1-10.6 0-20.4 1.7-29.4 5s-16.7 8.1-23.2 14.3c-6.5 6.2-11.6 13.7-15.3 22.6-1.5 3.7-2.7 7.5-3.6 11.5h32.4c2.2-5.1 4.8-9.6 8.2-13.4z"/></g></g><g id="Logo_x5F_Red"><path class="st4" d="M72.6 19.1h24.8L156.5 155h-33.8L111 126.2 85 62l-38.2 93h-33L72.6 19.1zM813.6 19.1h24.8L897.5 155h-33.8L852 126.2 826 62l-38.2 93h-33l58.8-135.9zM170.1 19.1h50.5c7 0 13.7.6 20 1.9 6.3 1.3 11.7 3.5 16.4 6.6 4.7 3.1 8.4 7.4 11.1 12.7 2.8 5.3 4.1 12 4.1 20.1 0 7.9-1.3 14.6-3.8 20-2.6 5.4-6.1 9.7-10.6 12.9-4.5 3.2-9.8 5.5-15.9 6.8-6.1 1.3-12.8 2-20 2H200v53h-30v-136zM200 76.7h20c2.7 0 5.3-.3 7.8-.8s4.7-1.4 6.7-2.6c2-1.2 3.6-2.9 4.8-5 1.2-2.1 1.8-4.8 1.8-8 0-3.5-.8-6.2-2.4-8.4-1.6-2.1-3.6-3.7-6.1-4.9-2.5-1.2-5.3-1.9-8.4-2.2-3.1-.3-6-.5-8.8-.5H200v32.4zM292.2 19.1h30v56.4L375 19.1h39.2l-60.5 63.2 65.7 72.8h-41.9l-55.3-64.5V155h-30V19.1zM535.5 103c-.2.5-.4 1.1-.6 1.6-2 5.3-4.8 9.9-8.5 13.8-3.7 3.9-8.2 7-13.3 9.1-5.2 2.2-11 3.3-17.4 3.3-6.4 0-12.2-1.1-17.4-3.3-5.2-2.2-9.6-5.2-13.3-9.1-3.7-3.9-6.6-8.5-8.5-13.8-.2-.5-.4-1.1-.6-1.6h-32.1c.9 4.8 2.2 9.3 4 13.6 3.7 8.8 8.7 16.4 15.3 22.6 6.5 6.2 14.3 11 23.2 14.3 9 3.3 18.8 5 29.4 5 10.6 0 20.4-1.7 29.4-5s16.7-8.1 23.2-14.3c6.5-6.2 11.6-13.7 15.3-22.6 1.8-4.3 3.1-8.8 4-13.6h-32.1zM465 55.6c3.7-3.9 8.2-6.9 13.3-9.1 5.2-2.2 11-3.3 17.4-3.3 6.4 0 12.2 1.1 17.4 3.3 5.2 2.2 9.6 5.2 13.3 9.1 3.1 3.3 5.6 7.1 7.5 11.4h32.8c-.8-3.3-1.9-6.5-3.1-9.5-3.6-8.8-8.7-16.4-15.3-22.6-6.5-6.2-14.3-11-23.2-14.3-9-3.3-18.8-5-29.4-5-10.6 0-20.4 1.7-29.4 5s-16.7 8.1-23.2 14.3c-6.5 6.2-11.6 13.7-15.3 22.6-1.3 3.1-2.3 6.2-3.1 9.5h32.8c1.9-4.3 4.4-8.1 7.5-11.4zM589.4 19.1h45.3l31.3 88.7h.4l31.5-88.7H743V155h-30V50.7h-.4L677 155h-22.8L619.8 50.7h-.4V155h-30V19.1zM921.6 45.6h-38.8V19.1h107.5v26.5h-38.8V155h-30V45.6zM1005.1 19.1h30V155h-30V19.1zM1152.6 116.2c-3.1 4.6-7 8.2-11.7 10.8-4.7 2.6-10.2 3.8-16.3 3.8-5.4 0-10.4-1.1-15.1-3.3-4.7-2.2-8.7-5.2-12.2-9.1-3.4-3.8-6-8.3-8-13.4h-32.4c.9 4 2.1 7.9 3.6 11.6 3.7 8.8 8.7 16.4 15.3 22.6 6.5 6.2 14.3 11 23.2 14.3 9 3.3 18.8 5 29.4 5 9.3 0 18.4-1.9 27.3-5.8 8.8-3.8 16.1-9.8 21.9-17.9l-25-18.6zm-55.3-60.6c3.5-3.9 7.7-6.9 12.5-9.1 4.8-2.2 10-3.3 15.6-3.3s10.6 1 14.9 2.9c4.3 1.9 7.9 4.7 10.8 8.2l23-18.8c-2.9-3.7-6.3-6.9-10-9.4-3.7-2.6-7.6-4.6-11.6-6.1s-8.1-2.7-12.3-3.4c-4.2-.7-8.2-1-12-1-10.6 0-20.4 1.7-29.4 5s-16.7 8.1-23.2 14.3c-6.5 6.2-11.6 13.7-15.3 22.6-1.5 3.7-2.7 7.5-3.6 11.5h32.4c2.2-5.1 4.8-9.6 8.2-13.4z"/></g><g id="Logo_x5F_White" class="st0"><g class="st1"><path class="st5" d="M72.6 19.1h24.8L156.5 155h-33.8L111 126.2 85 62l-38.2 93h-33L72.6 19.1zM813.6 19.1h24.8L897.5 155h-33.8L852 126.2 826 62l-38.2 93h-33l58.8-135.9zM170.1 19.1h50.5c7 0 13.7.6 20 1.9 6.3 1.3 11.7 3.5 16.4 6.6 4.7 3.1 8.4 7.4 11.1 12.7 2.8 5.3 4.1 12 4.1 20.1 0 7.9-1.3 14.6-3.8 20-2.6 5.4-6.1 9.7-10.6 12.9-4.5 3.2-9.8 5.5-15.9 6.8-6.1 1.3-12.8 2-20 2H200v53h-30v-136zM200 76.7h20c2.7 0 5.3-.3 7.8-.8s4.7-1.4 6.7-2.6c2-1.2 3.6-2.9 4.8-5 1.2-2.1 1.8-4.8 1.8-8 0-3.5-.8-6.2-2.4-8.4-1.6-2.1-3.6-3.7-6.1-4.9-2.5-1.2-5.3-1.9-8.4-2.2-3.1-.3-6-.5-8.8-.5H200v32.4zM292.2 19.1h30v56.4L375 19.1h39.2l-60.5 63.2 65.7 72.8h-41.9l-55.3-64.5V155h-30V19.1zM535.5 103c-.2.5-.4 1.1-.6 1.6-2 5.3-4.8 9.9-8.5 13.8-3.7 3.9-8.2 7-13.3 9.1-5.2 2.2-11 3.3-17.4 3.3-6.4 0-12.2-1.1-17.4-3.3-5.2-2.2-9.6-5.2-13.3-9.1-3.7-3.9-6.6-8.5-8.5-13.8-.2-.5-.4-1.1-.6-1.6h-32.1c.9 4.8 2.2 9.3 4 13.6 3.7 8.8 8.7 16.4 15.3 22.6 6.5 6.2 14.3 11 23.2 14.3 9 3.3 18.8 5 29.4 5 10.6 0 20.4-1.7 29.4-5s16.7-8.1 23.2-14.3c6.5-6.2 11.6-13.7 15.3-22.6 1.8-4.3 3.1-8.8 4-13.6h-32.1zM465 55.6c3.7-3.9 8.2-6.9 13.3-9.1 5.2-2.2 11-3.3 17.4-3.3 6.4 0 12.2 1.1 17.4 3.3 5.2 2.2 9.6 5.2 13.3 9.1 3.1 3.3 5.6 7.1 7.5 11.4h32.8c-.8-3.3-1.9-6.5-3.1-9.5-3.6-8.8-8.7-16.4-15.3-22.6-6.5-6.2-14.3-11-23.2-14.3-9-3.3-18.8-5-29.4-5-10.6 0-20.4 1.7-29.4 5s-16.7 8.1-23.2 14.3c-6.5 6.2-11.6 13.7-15.3 22.6-1.3 3.1-2.3 6.2-3.1 9.5h32.8c1.9-4.3 4.4-8.1 7.5-11.4zM589.4 19.1h45.3l31.3 88.7h.4l31.5-88.7H743V155h-30V50.7h-.4L677 155h-22.8L619.8 50.7h-.4V155h-30V19.1zM921.6 45.6h-38.8V19.1h107.5v26.5h-38.8V155h-30V45.6zM1005.1 19.1h30V155h-30V19.1zM1152.6 116.2c-3.1 4.6-7 8.2-11.7 10.8-4.7 2.6-10.2 3.8-16.3 3.8-5.4 0-10.4-1.1-15.1-3.3-4.7-2.2-8.7-5.2-12.2-9.1-3.4-3.8-6-8.3-8-13.4h-32.4c.9 4 2.1 7.9 3.6 11.6 3.7 8.8 8.7 16.4 15.3 22.6 6.5 6.2 14.3 11 23.2 14.3 9 3.3 18.8 5 29.4 5 9.3 0 18.4-1.9 27.3-5.8 8.8-3.8 16.1-9.8 21.9-17.9l-25-18.6zm-55.3-60.6c3.5-3.9 7.7-6.9 12.5-9.1 4.8-2.2 10-3.3 15.6-3.3s10.6 1 14.9 2.9c4.3 1.9 7.9 4.7 10.8 8.2l23-18.8c-2.9-3.7-6.3-6.9-10-9.4-3.7-2.6-7.6-4.6-11.6-6.1s-8.1-2.7-12.3-3.4c-4.2-.7-8.2-1-12-1-10.6 0-20.4 1.7-29.4 5s-16.7 8.1-23.2 14.3c-6.5 6.2-11.6 13.7-15.3 22.6-1.5 3.7-2.7 7.5-3.6 11.5h32.4c2.2-5.1 4.8-9.6 8.2-13.4z"/></g></g></svg>