<svg xmlns="http://www.w3.org/2000/svg" xmlns:xlink="http://www.w3.org/1999/xlink" width="3466.616" height="1615.458" viewBox="0 0 3466.616 1615.458"><defs><filter id="a" x="2853.572" y="373.879" width="613.044" height="1227.333" filterUnits="userSpaceOnUse"><feOffset dy="3" input="SourceAlpha"/><feGaussianBlur stdDeviation="3" result="b"/><feFlood flood-opacity="0.443"/><feComposite operator="in" in2="b"/><feComposite in="SourceGraphic"/></filter></defs><g transform="translate(1411.806 640.331)"><g transform="translate(-244.7 -640.331)"><g transform="translate(0 0)"><path d="M996.4,864.705,481.19,858.113l1.5-13.214L507.617,626.92H960.086L993.365,844.9l2.544,16.51Z" transform="translate(263.537 725.512)" fill="#2f2e41"/><path d="M995.91,718.82H738.781l-257.591-3.3,1.5-13.213H993.365Z" transform="translate(263.537 868.102)" opacity="0.1"/><rect width="683.661" height="16.51" transform="translate(658.854 1573.708)" fill="#3f3d56"/><path d="M2249.455,281.787a43,43,0,0,0-42.792-43.2H297.442a43,43,0,0,0-42.792,43.2V1439.082H2249.455Z" transform="translate(-254.65 -238.59)" fill="#3f3d56"/><path d="M254.65,649.8V785.347a42.792,42.792,0,0,0,42.792,42.792H2206.663a42.792,42.792,0,0,0,42.792-42.792V649.8Z" transform="translate(-254.649 539.155)" fill="#3f3d56"/><rect width="1839.568" height="1040.339" transform="translate(82.549 72.66)" fill="#2f2e41"/><path d="M587.42,632.06,792.967,838.474,761.422,632.06Z" transform="translate(464.456 735.234)" opacity="0.1"/><circle cx="57" cy="57" r="57" transform="translate(950.7 1188.331)" fill="#2a293a"/></g><rect width="1841.914" height="1040.363" transform="translate(76.136 69.256)" fill="none"/><line x2="1538.614" transform="translate(217.106 167.652)" fill="none" stroke="#2f2e41" stroke-miterlimit="10" stroke-width="2"/><circle cx="16.029" cy="16.029" r="16.029" transform="translate(125.81 119.46)" fill="#eb4c2f"/><circle cx="16.029" cy="16.029" r="16.029" transform="translate(173.897 120.35)" fill="#eadb24"/><circle cx="16.029" cy="16.029" r="16.029" transform="translate(221.985 121.241)" fill="#2feb62"/><rect width="1335.58" height="213.72" transform="translate(298.142 227.21)" fill="#536dfe" opacity="0.3"/><line y1="213.72" x2="1335.58" transform="translate(298.142 227.21)" fill="none" stroke="#536dfe" stroke-miterlimit="10" stroke-width="2" opacity="0.3"/><line x1="1335.58" y1="213.72" transform="translate(298.142 227.21)" fill="none" stroke="#536dfe" stroke-miterlimit="10" stroke-width="2" opacity="0.3"/><rect width="261.807" height="343.733" transform="translate(298.142 576.287)" fill="#536dfe" opacity="0.3"/><rect width="261.807" height="343.733" transform="translate(1371.914 576.287)" fill="#536dfe" opacity="0.3"/><rect width="261.807" height="343.733" transform="translate(827.732 576.287)" fill="#536dfe" opacity="0.3"/><line x2="261.807" y2="343.733" transform="translate(298.142 576.287)" fill="none" stroke="#536dfe" stroke-miterlimit="10" stroke-width="2" opacity="0.3"/><line x1="261.807" y2="343.733" transform="translate(298.142 576.287)" fill="none" stroke="#536dfe" stroke-miterlimit="10" stroke-width="2" opacity="0.3"/><line x2="261.807" y2="343.733" transform="translate(828.822 576.287)" fill="none" stroke="#536dfe" stroke-miterlimit="10" stroke-width="2" opacity="0.3"/><line x1="261.807" y2="343.733" transform="translate(828.822 576.287)" fill="none" stroke="#536dfe" stroke-miterlimit="10" stroke-width="2" opacity="0.3"/><line x2="261.807" y2="343.733" transform="translate(1371.914 576.287)" fill="none" stroke="#536dfe" stroke-miterlimit="10" stroke-width="2" opacity="0.3"/><line x1="261.807" y2="343.733" transform="translate(1371.914 576.287)" fill="none" stroke="#536dfe" stroke-miterlimit="10" stroke-width="2" opacity="0.3"/><rect width="1097.097" height="213.72" transform="translate(682.667 227.21)" fill="#536dfe"/><rect width="261.807" height="343.733" transform="translate(1421.783 658.213)" fill="#536dfe"/><rect width="185.224" height="21.372" transform="translate(1460.074 703.628)" fill="#3f3d56"/><rect width="185.224" height="21.372" transform="translate(1460.074 749.934)" fill="#3f3d56"/><rect width="185.224" height="21.372" transform="translate(1460.074 796.24)" fill="#3f3d56"/><rect width="185.224" height="21.372" transform="translate(1460.074 842.546)" fill="#3f3d56"/><rect width="185.224" height="21.372" transform="translate(1460.074 888.853)" fill="#3f3d56"/><rect width="185.224" height="21.372" transform="translate(1460.074 935.158)" fill="#3f3d56"/><rect width="261.807" height="343.733" transform="translate(362.258 622.593)" fill="#536dfe"/><rect width="185.224" height="21.372" transform="translate(400.549 737.467)" fill="#3f3d56"/><rect width="185.224" height="21.372" transform="translate(400.549 783.773)" fill="#3f3d56"/><rect width="185.224" height="21.372" transform="translate(400.549 830.079)" fill="#3f3d56"/><rect width="261.807" height="343.733" transform="translate(756.856 708.081)" fill="#536dfe"/><rect width="117.546" height="117.546" transform="translate(831.412 762.401)" fill="#3f3d56"/><rect width="206.596" height="14.248" transform="translate(785.464 904.881)" fill="#3f3d56"/><rect width="206.596" height="14.248" transform="translate(785.464 944.063)" fill="#3f3d56"/><rect width="206.596" height="14.248" transform="translate(785.464 983.246)" fill="#3f3d56"/></g><g transform="translate(1444.757 -260.452)"><rect width="17.774" height="146.586" rx="2.29" transform="translate(591.457 274.323)" fill="#3a3768"/><rect width="9.972" height="48.264" rx="2.29" transform="translate(0.359 159.482)" fill="#3a3768"/><rect width="11.246" height="84.01" rx="2.29" transform="translate(0 247.832)" fill="#3a3768"/><rect width="10.707" height="84.727" rx="2.29" transform="translate(0.179 361.238)" fill="#3a3768"/><g transform="matrix(1, 0, 0, 1, -2856.56, -379.88)" filter="url(#a)"><rect width="595.044" height="1209.333" rx="38.99" transform="translate(2862.57 379.88)" fill="#3f3d56"/></g><rect width="83.095" height="16.877" rx="3.87" transform="translate(246.128 36.104)" fill="#e6e8ec"/><circle cx="9.578" cy="9.578" r="9.578" transform="translate(341.778 34.974)" fill="#e6e8ec"/><path d="M925.215,142.86H857.06v8.2a38.92,38.92,0,0,1-38.92,38.92H601.014a38.9,38.9,0,0,1-38.92-38.92v-8.2h-63.9a47.26,47.26,0,0,0-47.26,47.26V1241.926a47.26,47.26,0,0,0,47.26,47.26H925.215a47.242,47.242,0,0,0,47.242-47.26V190.12A47.242,47.242,0,0,0,925.215,142.86Z" transform="translate(-408.172 -111.365)" fill="#2f2e41"/><rect width="279.793" height="96.851" rx="3.88" transform="translate(164.719 167.069)" fill="#536dfe"/><rect width="358.709" height="32.284" rx="3.88" transform="translate(125.709 823.506)" fill="#536dfe"/><rect width="358.709" height="32.284" rx="3.88" transform="translate(125.709 873.725)" fill="#536dfe"/><rect width="358.709" height="32.284" rx="3.88" transform="translate(125.709 923.944)" fill="#536dfe"/><rect width="358.709" height="32.284" rx="3.88" transform="translate(125.709 974.164)" fill="#536dfe"/><rect width="136.309" height="32.284" rx="3.88" transform="translate(125.709 1024.383)" fill="#536dfe"/><rect width="487.844" height="369.47" rx="5.71" transform="translate(61.142 358.978)" fill="#536dfe" opacity="0.3"/></g><g transform="translate(-1411.806 -285.062)"><rect width="1606.207" height="1260.189" fill="#2f2e41"/><path d="M813.831,270.244H417.581a4.809,4.809,0,1,1,0-9.618h396.25a4.809,4.809,0,0,1,0,9.618Z" transform="translate(-29.001 -98.027)" fill="#f2f2f2"/><path d="M1137.62,295.01H514.392a4.809,4.809,0,1,1,0-9.618H1137.62a4.809,4.809,0,0,1,0,9.618Z" transform="translate(80.968 -69.895)" fill="#f2f2f2"/><path d="M814.731,319.775H418.482a4.809,4.809,0,1,1,0-9.618h396.25a4.809,4.809,0,0,1,0,9.618Z" transform="translate(-27.978 -41.764)" fill="#f2f2f2"/><path d="M1016.91,320.226H620.66a4.809,4.809,0,0,1,0-9.618h396.25a4.809,4.809,0,0,1,0,9.618Z" transform="translate(201.679 -41.252)" fill="#f2f2f2"/><path d="M815.182,344.541H418.932a4.809,4.809,0,1,1,0-9.618h396.25a4.809,4.809,0,1,1,0,9.618Z" transform="translate(-27.467 -13.632)" fill="#f2f2f2"/><path d="M815.632,369.307H419.382a4.809,4.809,0,0,1,0-9.618h396.25a4.809,4.809,0,1,1,0,9.618Z" transform="translate(-26.955 14.5)" fill="#f2f2f2"/><path d="M749.459,270.694H635.97a4.809,4.809,0,1,1,0-9.618H749.459a4.809,4.809,0,0,1,0,9.618Z" transform="translate(219.069 -97.516)" fill="#f2f2f2"/><path d="M749.459,344.541H635.97a4.809,4.809,0,1,1,0-9.618H749.459a4.809,4.809,0,0,1,0,9.618Z" transform="translate(219.069 -13.632)" fill="#f2f2f2"/><path d="M749.459,368.857H635.969a4.809,4.809,0,1,1,0-9.618H749.459a4.809,4.809,0,0,1,0,9.618Z" transform="translate(219.069 13.988)" fill="#f2f2f2"/><path d="M838.615,368.857H725.126a4.809,4.809,0,1,1,0-9.618H838.615a4.809,4.809,0,1,1,0,9.618Z" transform="translate(320.344 13.988)" fill="#f2f2f2"/><path d="M530.62,295.01H417.131a4.809,4.809,0,0,1,0-9.618H530.62a4.809,4.809,0,1,1,0,9.618Z" transform="translate(-29.513 -69.895)" fill="#f2f2f2"/><path d="M814.056,634.975H417.806a4.809,4.809,0,1,1,0-9.617h396.25a4.809,4.809,0,1,1,0,9.618Z" transform="translate(-28.746 316.276)" fill="#f2f2f2"/><path d="M813.155,684.507H416.906a4.809,4.809,0,1,1,0-9.618h396.25a4.809,4.809,0,1,1,0,9.617Z" transform="translate(-29.769 372.54)" fill="#f2f2f2"/><path d="M813.606,709.273H417.356a4.809,4.809,0,1,1,0-9.618h396.25a4.809,4.809,0,0,1,0,9.618Z" transform="translate(-29.257 400.672)" fill="#f2f2f2"/><path d="M742.479,684.957H628.99a4.809,4.809,0,0,1,0-9.618H742.479a4.809,4.809,0,1,1,0,9.618Z" transform="translate(211.141 373.051)" fill="#f2f2f2"/><path d="M742.479,709.273H628.99a4.809,4.809,0,0,1,0-9.618H742.479a4.809,4.809,0,1,1,0,9.618Z" transform="translate(211.141 400.672)" fill="#f2f2f2"/><path d="M831.636,684.957H718.147a4.809,4.809,0,1,1,0-9.618H831.636a4.809,4.809,0,0,1,0,9.618Z" transform="translate(312.415 373.051)" fill="#f2f2f2"/><path d="M1137.845,659.741H514.618a4.809,4.809,0,1,1,0-9.618h623.228a4.809,4.809,0,1,1,0,9.618Z" transform="translate(81.224 344.408)" fill="#f2f2f2"/><path d="M530.845,659.741H417.356a4.809,4.809,0,0,1,0-9.618H530.845a4.809,4.809,0,1,1,0,9.618Z" transform="translate(-29.257 344.408)" fill="#f2f2f2"/><path d="M1137.845,734.489H514.618a4.809,4.809,0,1,1,0-9.618h623.228a4.809,4.809,0,1,1,0,9.618Z" transform="translate(81.224 429.315)" fill="#f2f2f2"/><path d="M530.845,734.489H417.356a4.809,4.809,0,0,1,0-9.618H530.845a4.809,4.809,0,1,1,0,9.618Z" transform="translate(-29.257 429.315)" fill="#f2f2f2"/><path d="M600.9,401.13,447.014,553.09,600.9,705.049l34.623-34.623L519.148,554.051,636.482,436.714Z" transform="translate(88.717 109.631)" fill="#536dfe"/><path d="M644.251,401.13,798.135,553.09,644.251,705.049l-34.623-34.623L726,554.051,608.667,436.714Z" transform="translate(272.341 109.631)" fill="#536dfe"/><circle cx="19.223" cy="19.223" r="19.223" transform="translate(23.495 12.815)" fill="#536dfe"/><circle cx="19.223" cy="19.223" r="19.223" transform="translate(74.757 12.815)" fill="#536dfe"/><circle cx="19.223" cy="19.223" r="19.223" transform="translate(126.019 12.815)" fill="#536dfe"/><rect width="1606.207" height="6.408" transform="translate(0 64.077)" opacity="0.1"/></g></g></svg>