<svg xmlns="http://www.w3.org/2000/svg" width="3382.297" height="2696.297" viewBox="0 0 3382.297 2696.297"><g transform="translate(0 0)"><g transform="translate(0 0)"><path d="M1354.757,1030.1,481.19,1018.92l2.549-22.4L526,626.92h767.184l56.427,369.6,4.314,27.993Z" transform="translate(781.534 1666.199)" fill="#2f2e41"/><path d="M1353.924,730.3H917.949L481.19,724.714l2.549-22.4h865.87Z" transform="translate(781.534 1960.405)" opacity="0.1"/><rect width="1159.183" height="27.993" transform="translate(1117.121 2668.304)" fill="#3f3d56"/><path d="M3636.946,311.833a72.9,72.9,0,0,0-72.556-73.243H327.207a72.9,72.9,0,0,0-72.556,73.243V2274.086h3382.3Z" transform="translate(-254.65 -238.59)" fill="#3f3d56"/><path d="M254.65,649.8V879.627a72.556,72.556,0,0,0,72.556,72.556H3564.389a72.556,72.556,0,0,0,72.557-72.556V649.8Z" transform="translate(-254.649 1366.135)" fill="#3f3d56"/><rect width="3119.083" height="1763.949" transform="translate(139.966 123.199)" fill="#2f2e41"/><path d="M587.42,632.06,935.935,982.046,882.449,632.06Z" transform="translate(1196.091 1686.258)" opacity="0.1"/><ellipse cx="97" cy="96.5" rx="97" ry="96.5" transform="translate(1611.7 2015.331)" fill="#2a293a"/></g><rect width="3123.061" height="1763.99" transform="translate(129.093 117.427)" fill="none"/><line x2="2608.8" transform="translate(368.115 284.262)" fill="none" stroke="#2f2e41" stroke-miterlimit="10" stroke-width="2"/><circle cx="27.178" cy="27.178" r="27.178" transform="translate(213.318 202.55)" fill="#eb4c2f"/><circle cx="27.178" cy="27.178" r="27.178" transform="translate(294.852 204.06)" fill="#eadb24"/><circle cx="27.178" cy="27.178" r="27.178" transform="translate(376.387 205.57)" fill="#2feb62"/><rect width="2264.545" height="362.374" transform="translate(505.515 385.247)" fill="#536dfe" opacity="0.3"/><line y1="362.374" x2="2264.545" transform="translate(505.515 385.247)" fill="none" stroke="#536dfe" stroke-miterlimit="10" stroke-width="2" opacity="0.3"/><line x1="2264.545" y1="362.374" transform="translate(505.515 385.247)" fill="none" stroke="#536dfe" stroke-miterlimit="10" stroke-width="2" opacity="0.3"/><rect width="443.908" height="582.818" transform="translate(505.515 977.124)" fill="#536dfe" opacity="0.3"/><rect width="443.908" height="582.818" transform="translate(2326.152 977.124)" fill="#536dfe" opacity="0.3"/><rect width="443.908" height="582.818" transform="translate(1403.463 977.124)" fill="#536dfe" opacity="0.3"/><line x2="443.908" y2="582.818" transform="translate(505.515 977.124)" fill="none" stroke="#536dfe" stroke-miterlimit="10" stroke-width="2" opacity="0.3"/><line x1="443.908" y2="582.818" transform="translate(505.515 977.124)" fill="none" stroke="#536dfe" stroke-miterlimit="10" stroke-width="2" opacity="0.3"/><line x2="443.908" y2="582.818" transform="translate(1405.311 977.124)" fill="none" stroke="#536dfe" stroke-miterlimit="10" stroke-width="2" opacity="0.3"/><line x1="443.908" y2="582.818" transform="translate(1405.311 977.124)" fill="none" stroke="#536dfe" stroke-miterlimit="10" stroke-width="2" opacity="0.3"/><line x2="443.908" y2="582.818" transform="translate(2326.152 977.124)" fill="none" stroke="#536dfe" stroke-miterlimit="10" stroke-width="2" opacity="0.3"/><line x1="443.908" y2="582.818" transform="translate(2326.152 977.124)" fill="none" stroke="#536dfe" stroke-miterlimit="10" stroke-width="2" opacity="0.3"/><rect width="1860.185" height="362.374" transform="translate(1157.497 385.247)" fill="#536dfe"/><rect width="443.908" height="582.818" transform="translate(2410.706 1116.034)" fill="#536dfe"/><rect width="314.057" height="36.237" transform="translate(2475.632 1193.039)" fill="#3f3d56"/><rect width="314.057" height="36.237" transform="translate(2475.632 1271.553)" fill="#3f3d56"/><rect width="314.057" height="36.237" transform="translate(2475.632 1350.067)" fill="#3f3d56"/><rect width="314.057" height="36.237" transform="translate(2475.632 1428.581)" fill="#3f3d56"/><rect width="314.057" height="36.237" transform="translate(2475.632 1507.096)" fill="#3f3d56"/><rect width="314.057" height="36.237" transform="translate(2475.632 1585.61)" fill="#3f3d56"/><rect width="443.908" height="582.818" transform="translate(614.227 1055.638)" fill="#536dfe"/><rect width="314.057" height="36.237" transform="translate(679.153 1250.415)" fill="#3f3d56"/><rect width="314.057" height="36.237" transform="translate(679.153 1328.928)" fill="#3f3d56"/><rect width="314.057" height="36.237" transform="translate(679.153 1407.443)" fill="#3f3d56"/><rect width="443.908" height="582.818" transform="translate(1283.288 1200.588)" fill="#536dfe"/><rect width="199.306" height="199.306" transform="translate(1409.703 1292.691)" fill="#3f3d56"/><rect width="350.295" height="24.158" transform="translate(1331.794 1534.274)" fill="#3f3d56"/><rect width="350.295" height="24.158" transform="translate(1331.794 1600.709)" fill="#3f3d56"/><rect width="350.295" height="24.158" transform="translate(1331.794 1667.144)" fill="#3f3d56"/></g></svg>