<svg xmlns="http://www.w3.org/2000/svg" width="576.224" height="463.235" viewBox="0 0 576.224 463.235">
  <g id="desktop" transform="translate(-78.242 -100.516)">
    <g id="Group_11" data-name="Group 11" transform="translate(78.242 100.516)">
      <g id="Group_8" data-name="Group 8" transform="translate(0)">
        <path id="Path_70" data-name="Path 70" d="M630.015,695.607,481.19,693.7l.434-3.817,7.2-62.966h130.7l9.613,62.966.735,4.769Z" transform="translate(-266.066 -232.372)" fill="#fff"/>
        <path id="Path_71" data-name="Path 71" d="M629.873,707.079H555.6l-74.408-.952.434-3.817H629.138Z" transform="translate(-266.066 -244.796)" opacity="0.1"/>
        <rect id="Rectangle_25" data-name="Rectangle 25" width="197.484" height="4.769" transform="translate(190.318 458.466)" fill="#f0f0f0"/>
        <path id="Path_72" data-name="Path 72" d="M830.874,251.068a12.42,12.42,0,0,0-12.361-12.478h-551.5a12.42,12.42,0,0,0-12.361,12.478v334.3H830.874Z" transform="translate(-254.65 -238.59)" fill="#fff"/>
        <path id="Path_73" data-name="Path 73" d="M254.65,649.8v39.154a12.361,12.361,0,0,0,12.361,12.361h551.5a12.361,12.361,0,0,0,12.361-12.361V649.8Z" transform="translate(-254.65 -302.475)" fill="#fff"/>
        <rect id="Rectangle_26" data-name="Rectangle 26" width="541.085" height="306.336" transform="translate(18.023 30.691)" fill="#2f2e41"/>
        <path id="Path_74" data-name="Path 74" d="M600.464,688.612a12.862,12.862,0,0,0,10.131-4.919h0a12.778,12.778,0,0,0,1-1.478l-7.066-1.161,7.642.058a12.945,12.945,0,0,0,.251-10.206l-10.256,5.32,9.455-6.949a12.879,12.879,0,1,0-21.273,14.416h0a12.863,12.863,0,0,0,10.114,4.919Z" transform="translate(-309.521 -304.629)" fill="#2f2e41"/>
        <path id="Path_75" data-name="Path 75" d="M587.42,632.06l59.375,59.625-9.112-59.625Z" transform="translate(-283.573 -233.219)" fill="#969696" opacity="0.143"/>
        <g id="Group_9" data-name="Group 9" transform="translate(39.433 122.574)" opacity="0.48">
          <path id="Path_77" data-name="Path 77" d="M569.085,363.423a31.139,31.139,0,1,0,31.139,31.139A31.139,31.139,0,0,0,569.085,363.423Zm-6.393,47.741-15.958-15.959,4.476-4.476,11.5,11.5,24.267-24.267,4.476,4.476Z" transform="translate(-399.853 -316.656)" fill="#0083f9"/>
          <rect id="Rectangle_8" data-name="Rectangle 8" width="253.517" height="132.781" transform="translate(10.898 10.898)" fill="#0083f9" opacity="0.703"/>
          <rect id="Rectangle_17" data-name="Rectangle 17" width="253.517" height="132.781" transform="translate(0 0)" fill="#0083f9"/>
        </g>
      </g>
      <g id="Group_10" data-name="Group 10" transform="translate(339.398 147.976)" opacity="0.991">
        <rect id="Rectangle_19" data-name="Rectangle 19" width="93.58" height="5.177" fill="#7996b1"/>
        <rect id="Rectangle_18" data-name="Rectangle 18" width="136.189" height="5.177" transform="translate(0 9.557)" fill="#7996b1"/>
        <rect id="Rectangle_20" data-name="Rectangle 20" width="93.58" height="5.177" transform="translate(0 32.654)" fill="#7996b1"/>
        <rect id="Rectangle_24" data-name="Rectangle 24" width="93.58" height="5.177" transform="translate(0 70.882)" fill="#7996b1"/>
        <rect id="Rectangle_21" data-name="Rectangle 21" width="136.189" height="5.177" transform="translate(0 42.211)" fill="#7996b1"/>
        <rect id="Rectangle_22" data-name="Rectangle 22" width="136.189" height="5.177" transform="translate(0 51.768)" fill="#7996b1"/>
        <rect id="Rectangle_23" data-name="Rectangle 23" width="136.189" height="5.177" transform="translate(0 61.325)" fill="#7996b1"/>
      </g>
      <path id="Path_78" data-name="Path 78" d="M0,0H69.023V24.483H0Z" transform="translate(338.234 238.462)" fill="#0083f9"/>
      <path id="Path_79" data-name="Path 79" d="M569.557,363.423a31.61,31.61,0,1,0,31.61,31.61A31.61,31.61,0,0,0,569.557,363.423Zm-6.489,48.464-16.2-16.2,4.544-4.544,11.671,11.672,24.635-24.635,4.544,4.544Z" transform="translate(-403.595 -202.564)" fill="#0083f9"/>
    </g>
  </g>
</svg>
