<svg xmlns="http://www.w3.org/2000/svg" width="1100.501" height="691.707" viewBox="0 0 1100.501 691.707"><path d="M1150.25,388.237h-1.859V337.322a29.469,29.469,0,0,0-29.469-29.469H1011.052a29.469,29.469,0,0,0-29.469,29.469V616.648a29.469,29.469,0,0,0,29.469,29.469h107.871a29.469,29.469,0,0,0,29.469-29.469V424.48h1.859Z" transform="translate(-49.75 -104.147)" fill="#3f3d56"/><path d="M1142.121,339.053v278.92a22.011,22.011,0,0,1-22.009,22.01H1011.721a22,22,0,0,1-22-22.008V339.053a22,22,0,0,1,22-22h13.15a10.461,10.461,0,0,0,9.68,14.4h61.8a10.44,10.44,0,0,0,9.68-14.4h14.08a22.009,22.009,0,0,1,22.01,22Z" transform="translate(-49.75 -104.147)" fill="#d0cde1"/><rect width="126" height="34" transform="translate(945.851 355.707)" fill="#b60045"/><path d="M1126.6,487.853h-122a3,3,0,0,1-3-3v-30a3,3,0,0,1,3-3h122a3,3,0,0,1,3,3v30A3,3,0,0,1,1126.6,487.853Zm-122-34a1,1,0,0,0-1,1v30a1,1,0,0,0,1,1h122a1,1,0,0,0,1-1v-30a1,1,0,0,0-1-1Z" transform="translate(-49.75 -104.147)" fill="#3f3d56"/><rect width="16" height="2" transform="translate(959.851 374.707)" fill="#3f3d56"/><rect width="16" height="2" transform="translate(981.851 374.707)" fill="#3f3d56"/><rect width="16" height="2" transform="translate(1003.851 374.707)" fill="#3f3d56"/><rect width="16" height="2" transform="translate(1025.851 374.707)" fill="#3f3d56"/><rect width="16" height="2" transform="translate(1047.851 374.707)" fill="#3f3d56"/><path d="M1142.121,589.613v28.36a22.011,22.011,0,0,1-22.009,22.01H1011.721a22,22,0,0,1-22-22.008V487.513Z" transform="translate(-49.75 -104.147)" opacity="0.1"/><rect width="473" height="232" transform="translate(99.851 459.707)" fill="#d0cde1"/><path d="M502.351,795.853H151.6a2.006,2.006,0,0,1-2-2v-228a2.006,2.006,0,0,1,2-2h4.44Z" transform="translate(-49.75 -104.147)" opacity="0.1"/><rect width="733" height="2" transform="translate(318.851 490.707)" fill="#3f3d56"/><path d="M600.343,108.464H390.853v-4.318H295.862v4.318H85.509a14.17,14.17,0,0,0-14.17,14.17V409.491a14.17,14.17,0,0,0,14.17,14.17H600.343a14.17,14.17,0,0,0,14.17-14.17V122.635A14.17,14.17,0,0,0,600.343,108.464Z" transform="translate(-49.75 -104.147)" fill="#3f3d56"/><rect width="505.17" height="284.98" transform="translate(40.591 29.357)" fill="#d0cde1"/><circle cx="5.181" cy="5.181" r="5.181" transform="translate(287.563 11.226)" fill="#b60045"/><path d="M240.6,239.853h-12a3,3,0,0,1-3-3v-12a3,3,0,0,1,3-3h12a3,3,0,0,1,3,3v12a3,3,0,0,1-3,3Zm-12-16a1,1,0,0,0-1,1v12a1,1,0,0,0,1,1h12a1,1,0,0,0,1-1v-12a1,1,0,0,0-1-1Z" transform="translate(-49.75 -104.147)" fill="#3f3d56"/><rect width="228" height="2" transform="translate(176.851 133.707)" fill="#3f3d56"/><rect width="53" height="16" transform="translate(345.851 188.707)" fill="#b60045"/><path d="M452.6,304.853h-49a3,3,0,0,1-3-3v-12a3,3,0,0,1,3-3h49a3,3,0,0,1,3,3v12a3,3,0,0,1-3,3Zm-49-16a1,1,0,0,0-1,1v12a1,1,0,0,0,1,1h49a1,1,0,0,0,1-1v-12a1,1,0,0,0-1-1Z" transform="translate(-49.75 -104.147)" fill="#3f3d56"/><rect width="16" height="2" transform="translate(284.351 562.707)" fill="#3f3d56"/><rect width="16" height="2" transform="translate(306.351 562.707)" fill="#3f3d56"/><rect width="16" height="2" transform="translate(328.351 562.707)" fill="#3f3d56"/><rect width="16" height="2" transform="translate(350.351 562.707)" fill="#3f3d56"/><rect width="16" height="2" transform="translate(372.351 562.707)" fill="#3f3d56"/><path d="M643.6,778.854h-469a4,4,0,0,1-4-4v-228a4,4,0,0,1,4-4h469a4,4,0,0,1,4,4v228a4,4,0,0,1-4,4Zm-469-232v228h469l0-228Z" transform="translate(-49.75 -104.147)" fill="#3f3d56"/><circle cx="6" cy="6" r="6" transform="translate(139.851 464.707)" fill="#3f3d56"/><circle cx="6" cy="6" r="6" transform="translate(160.851 464.707)" fill="#3f3d56"/><circle cx="6" cy="6" r="6" transform="translate(181.851 464.707)" fill="#3f3d56"/><path d="M453.6,680.853h-135a3,3,0,0,1-3-3v-34a3,3,0,0,1,3-3h135a3,3,0,0,1,3,3v34a3,3,0,0,1-3,3Zm-135-38a1,1,0,0,0-1,1v34a1,1,0,0,0,1,1h135a1,1,0,0,0,1-1v-34a1,1,0,0,0-1-1Z" transform="translate(-49.75 -104.147)" fill="#3f3d56"/><circle cx="18" cy="18" r="18" transform="translate(419.851 541.707)" fill="#b60045"/><path d="M493.6,679.853a19,19,0,1,1,19-19,19,19,0,0,1-19,19Zm0-36a17,17,0,1,0,17,17,17,17,0,0,0-17-17Z" transform="translate(-49.75 -104.147)" fill="#3f3d56"/><path d="M444.118,563.8l-9.681-9.682,2.828-2.828,6.319,6.318,17.632-25.056,3.271,2.3Z" fill="#3f3d56"/><path d="M433.761,314.337H40.591V50.947Z" opacity="0.1"/><path d="M628.7,413.3H579.4v-3.552a.7.7,0,0,0-.7-.7h-16.9a.7.7,0,0,0-.7.7V413.3H550.518v-3.552a.7.7,0,0,0-.7-.7h-16.9a.7.7,0,0,0-.7.7V413.3H521.641v-3.552a.7.7,0,0,0-.7-.7h-16.9a.7.7,0,0,0-.7.7V413.3H492.764v-3.552a.7.7,0,0,0-.7-.7h-16.9a.7.7,0,0,0-.7.7V413.3H463.887v-3.552a.7.7,0,0,0-.7-.7h-16.9a.7.7,0,0,0-.7.7V413.3H435.01v-3.552a.7.7,0,0,0-.7-.7H417.4a.7.7,0,0,0-.7.7V413.3H406.134v-3.552a.7.7,0,0,0-.7-.7H273.018a.7.7,0,0,0-.7.7V413.3H261.749v-3.552a.7.7,0,0,0-.7-.7h-16.9a.7.7,0,0,0-.7.7V413.3H232.872v-3.552a.7.7,0,0,0-.7-.7h-16.9a.7.7,0,0,0-.7.7V413.3H203.995v-3.552a.7.7,0,0,0-.7-.7h-16.9a.7.7,0,0,0-.7.7V413.3H175.118v-3.552a.7.7,0,0,0-.7-.7h-16.9a.7.7,0,0,0-.7.7V413.3H146.241v-3.552a.7.7,0,0,0-.7-.7h-16.9a.7.7,0,0,0-.7.7V413.3H117.364v-3.552a.7.7,0,0,0-.7-.7h-16.9a.7.7,0,0,0-.7.7V413.3h-32.4a16.9,16.9,0,0,0-16.9,16.9v7.643a16.9,16.9,0,0,0,16.9,16.9H628.7a16.9,16.9,0,0,0,16.9-16.9V430.2A16.9,16.9,0,0,0,628.7,413.3Z" transform="translate(-49.75 -104.147)" fill="#3f3d56"/><path d="M474.6,321.853h-264a3,3,0,0,1-3-3v-110a3,3,0,0,1,3-3h264a3,3,0,0,1,3,3v110a3,3,0,0,1-3,3Zm-264-114a1,1,0,0,0-1,1v110a1,1,0,0,0,1,1h264a1,1,0,0,0,1-1v-110a1,1,0,0,0-1-1Z" transform="translate(-49.75 -104.147)" fill="#3f3d56"/><path d="M240.6,269.853h-12a3,3,0,0,1-3-3v-12a3,3,0,0,1,3-3h12a3,3,0,0,1,3,3v12a3,3,0,0,1-3,3Zm-12-16a1,1,0,0,0-1,1v12a1,1,0,0,0,1,1h12a1,1,0,0,0,1-1v-12a1,1,0,0,0-1-1Z" transform="translate(-49.75 -104.147)" fill="#3f3d56"/><rect width="228" height="2" transform="translate(176.851 163.707)" fill="#3f3d56"/><rect width="733" height="2" transform="translate(264.851 269.707)" fill="#3f3d56"/><circle cx="14" cy="14" r="14" transform="translate(250.851 255.707)" fill="#3f3d56"/><circle cx="11" cy="11" r="11" transform="translate(986.851 260.707)" fill="#3f3d56"/><circle cx="11" cy="11" r="11" transform="translate(1040.851 481.707)" fill="#3f3d56"/><circle cx="11" cy="11" r="11" transform="translate(310.851 481.707)" fill="#3f3d56"/></svg>