
<svg width="497px" height="317px" viewBox="0 0 497 317" version="1.1" xmlns="http://www.w3.org/2000/svg" xmlns:xlink="http://www.w3.org/1999/xlink">
    <g id="Page-1" stroke="none" stroke-width="1" fill="none" fill-rule="evenodd">
        <g id="OEZGCF1" transform="translate(-63.000000, 0.000000)">
            <path d="M450.27,42.357 C450.27,37.024 446.499,32.709 441.838,32.709 L176.244,32.709 C171.592,32.709 167.815,37.024 167.815,42.357 L167.815,198.116 L450.27,198.116 L450.27,42.357" id="Fill-729" fill="#282C35"></path>
            <path d="M431.678,57.01 C431.678,52.602 428.401,49.026 424.356,49.026 L193.727,49.026 C189.685,49.026 186.407,52.602 186.407,57.01 L186.407,185.981 L431.678,185.981 L431.678,57.01" id="Fill-730" fill="#3E434F"></path>
            <path d="M167.815,198.116 L167.815,250.921 C167.815,256.256 171.592,260.574 176.244,260.574 L441.838,260.574 C446.499,260.574 450.27,256.256 450.27,250.921 L450.27,198.116 L167.815,198.116" id="Fill-731" fill="#F1F2F2"></path>
            <polyline id="Fill-732" fill="#E6E7E8" points="346.818 260.574 272.747 260.574 268.978 300.793 350.588 300.793 346.818 260.574"></polyline>
            <polyline id="Fill-733" fill="#E3E4E4" points="347.254 265.246 272.313 265.246 272.747 260.574 346.818 260.574 347.254 265.246"></polyline>
            <path d="M360.85,307.673 C361.137,307.029 361.299,306.314 361.299,305.56 C361.299,302.636 358.925,300.257 356.003,300.257 L262.087,300.257 C259.157,300.257 256.79,302.636 256.79,305.56 C256.79,306.314 256.95,307.029 257.234,307.673 L360.85,307.673" id="Fill-734" fill="#D1D3D4"></path>
            <path d="M321.085,226.606 C321.085,232.851 316.022,237.9 309.779,237.9 C303.543,237.9 298.485,232.851 298.485,226.606 C298.485,220.364 303.543,215.31 309.779,215.31 C316.022,215.31 321.085,220.364 321.085,226.606" id="Fill-735" fill="#E6E7E8"></path>
            <path d="M431.678,59.005 L431.678,57.01 C431.678,52.602 428.401,49.026 424.356,49.026 L193.727,49.026 C189.685,49.026 186.407,52.602 186.407,57.01 L186.407,184.455 C218.883,123.509 312.592,75.575 431.678,59.005" id="Fill-736" fill="#393E49"></path>
            <polyline id="Fill-751" fill="#27576D" points="529.462 222.913 543.281 299.806 541.08 300.116 527.259 223.227 529.462 222.913"></polyline>
            <polyline id="Fill-752" fill="#2B5D74" points="527.259 223.227 541.08 300.116 538.783 300.444 524.962 223.552 527.259 223.227"></polyline>
            <polyline id="Fill-753" fill="#2F647D" points="522.76 223.862 524.962 223.552 538.783 300.444 536.581 300.755 522.76 223.862"></polyline>
            <path d="M523.251,214.962 L523.57,209.251 L525.873,214.591 C525.086,215.094 524.177,215.223 523.251,214.962" id="Fill-754" fill="#403F44"></path>
            <path d="M525.873,214.591 L529.462,222.913 L522.76,223.862 L523.251,214.962 C524.177,215.223 525.086,215.094 525.873,214.591" id="Fill-755" fill="#FFFFFF"></path>
            <polyline id="Fill-756" fill="#FFFFFF" points="536.959 302.86 543.661 301.911 543.281 299.806 536.581 300.755 536.959 302.86"></polyline>
            <polyline id="Fill-757" fill="#353439" points="538.365 310.682 545.065 309.733 543.661 301.911 536.959 302.86 538.365 310.682"></polyline>
            <polyline id="Fill-758" fill="#3E3D42" points="545.065 309.733 543.661 301.911 541.619 302.199 543.025 310.022 545.065 309.733"></polyline>
            <polyline id="Fill-759" fill="#FBFBFB" points="543.281 299.806 543.661 301.911 541.619 302.199 541.242 300.097 543.281 299.806"></polyline>
            <polyline id="Fill-760" fill="#E6E7E8" points="542.618 222.778 535.937 300.415 533.713 300.264 540.393 222.629 542.618 222.778"></polyline>
            <polyline id="Fill-761" fill="#D1D3D4" points="540.393 222.629 533.713 300.264 531.394 300.107 538.072 222.471 540.393 222.629"></polyline>
            <polyline id="Fill-762" fill="#BCBEC0" points="535.85 222.318 538.072 222.471 531.394 300.107 529.17 299.957 535.85 222.318"></polyline>
            <path d="M538.657,213.764 L540.463,208.275 L541.304,213.942 C540.407,214.271 539.49,214.208 538.657,213.764" id="Fill-763" fill="#403F44"></path>
            <path d="M541.304,213.942 L542.618,222.778 L535.85,222.318 L538.657,213.764 C539.49,214.208 540.407,214.271 541.304,213.942" id="Fill-764" fill="#FFFFFF"></path>
            <polyline id="Fill-765" fill="#FFFFFF" points="528.987 302.082 535.756 302.541 535.937 300.415 529.17 299.957 528.987 302.082"></polyline>
            <polyline id="Fill-766" fill="#353439" points="528.308 309.98 535.075 310.438 535.756 302.541 528.987 302.082 528.308 309.98"></polyline>
            <polyline id="Fill-767" fill="#3E3D42" points="535.075 310.438 535.756 302.541 533.692 302.401 533.014 310.3 535.075 310.438"></polyline>
            <polyline id="Fill-768" fill="#FBFBFB" points="535.937 300.415 535.756 302.541 533.692 302.401 533.877 300.28 535.937 300.415"></polyline>
            <polyline id="Fill-769" fill="#FF876C" points="519.8 221.486 535.518 298.09 533.32 298.443 517.605 221.841 519.8 221.486"></polyline>
            <polyline id="Fill-770" fill="#F3796A" points="517.605 221.841 533.32 298.443 531.032 298.815 515.317 222.211 517.605 221.841"></polyline>
            <polyline id="Fill-771" fill="#F37368" points="513.123 222.566 515.317 222.211 531.032 298.815 528.839 299.17 513.123 222.566"></polyline>
            <path d="M513.394,213.657 L513.573,207.942 L516.006,213.235 C515.232,213.753 514.327,213.898 513.394,213.657" id="Fill-772" fill="#403F44"></path>
            <path d="M516.006,213.235 L519.8,221.486 L513.123,222.566 L513.394,213.657 C514.327,213.898 515.232,213.753 516.006,213.235" id="Fill-773" fill="#FFFFFF"></path>
            <polyline id="Fill-774" fill="#FFFFFF" points="529.269 301.268 535.948 300.186 535.518 298.09 528.839 299.17 529.269 301.268"></polyline>
            <polyline id="Fill-775" fill="#353439" points="530.868 309.059 537.545 307.979 535.948 300.186 529.269 301.268 530.868 309.059"></polyline>
            <polyline id="Fill-776" fill="#3E3D42" points="537.545 307.979 535.948 300.186 533.914 300.516 535.512 308.309 537.545 307.979"></polyline>
            <polyline id="Fill-777" fill="#FBFBFB" points="535.518 298.09 535.948 300.186 533.914 300.516 533.483 298.423 535.518 298.09"></polyline>
            <polygon id="Fill-778" fill="#F1F2F2" points="501.899 268.414 559.406 268.414 559.406 260.923 501.899 260.923"></polygon>
            <polygon id="Fill-779" fill="#E3E4E4" points="506.956 315.242 554.351 315.242 554.351 268.414 506.956 268.414"></polygon>
            <polygon id="Fill-780" fill="#D9DADB" points="506.956 270.569 554.351 270.569 554.351 268.414 506.956 268.414"></polygon>
            <polygon id="Fill-781" fill="#FFFFFF" points="211.444 185.981 403.805 185.981 403.805 23.592 211.444 23.592"></polygon>
            <path d="M403.805,10.005 C403.805,4.673 399.483,0.35 394.151,0.35 L221.098,0.35 C215.766,0.35 211.444,4.673 211.444,10.005 L211.444,10.362 L403.805,10.362 L403.805,10.005" id="Fill-782" fill="#D1D3D4"></path>
            <polygon id="Fill-783" fill="#E6E7E8" points="211.444 23.592 403.805 23.592 403.805 10.362 211.444 10.362"></polygon>
            <path d="M233.254,19.282 C233.254,19.769 233.748,20.161 234.354,20.161 L380.581,20.161 C381.19,20.161 381.683,19.769 381.683,19.282 L381.683,14.67 C381.683,14.185 381.19,13.792 380.581,13.792 L234.354,13.792 C233.748,13.792 233.254,14.185 233.254,14.67 L233.254,19.282" id="Fill-784" fill="#FFFFFF"></path>
            <path d="M219.974,5.355 C219.974,6.132 219.343,6.764 218.565,6.764 C217.79,6.764 217.157,6.132 217.157,5.355 C217.157,4.577 217.79,3.947 218.565,3.947 C219.343,3.947 219.974,4.577 219.974,5.355" id="Fill-785" fill="#C2C4C5"></path>
            <path d="M223.896,5.355 C223.896,6.132 223.264,6.764 222.488,6.764 C221.71,6.764 221.079,6.132 221.079,5.355 C221.079,4.577 221.71,3.947 222.488,3.947 C223.264,3.947 223.896,4.577 223.896,5.355" id="Fill-786" fill="#C2C4C5"></path>
            <path d="M227.865,5.355 C227.865,6.132 227.238,6.764 226.459,6.764 C225.683,6.764 225.051,6.132 225.051,5.355 C225.051,4.577 225.683,3.947 226.459,3.947 C227.238,3.947 227.865,4.577 227.865,5.355" id="Fill-787" fill="#C2C4C5"></path>
            <path d="M215.745,18.089 C215.745,18.843 216.357,19.457 217.113,19.457 L219.899,19.457 C220.655,19.457 221.268,18.843 221.268,18.089 L221.268,15.864 C221.268,15.107 220.655,14.495 219.899,14.495 L217.113,14.495 C216.357,14.495 215.745,15.107 215.745,15.864 L215.745,18.089" id="Fill-788" fill="#D1D3D4"></path>
            <path d="M224.155,17.954 C224.155,18.709 224.769,19.323 225.523,19.323 L228.308,19.323 C229.064,19.323 229.677,18.709 229.677,17.954 L229.677,15.731 C229.677,14.974 229.064,14.363 228.308,14.363 L225.523,14.363 C224.769,14.363 224.155,14.974 224.155,15.731 L224.155,17.954" id="Fill-789" fill="#D1D3D4"></path>
            <path d="M385.453,18.089 C385.453,18.843 386.067,19.457 386.821,19.457 L389.607,19.457 C390.363,19.457 390.976,18.843 390.976,18.089 L390.976,15.864 C390.976,15.107 390.363,14.495 389.607,14.495 L386.821,14.495 C386.067,14.495 385.453,15.107 385.453,15.864 L385.453,18.089" id="Fill-790" fill="#D1D3D4"></path>
            <path d="M393.631,18.089 C393.631,18.843 394.245,19.457 395.001,19.457 L397.787,19.457 C398.54,19.457 399.155,18.843 399.155,18.089 L399.155,15.864 C399.155,15.107 398.54,14.495 397.787,14.495 L395.001,14.495 C394.245,14.495 393.631,15.107 393.631,15.864 L393.631,18.089" id="Fill-791" fill="#D1D3D4"></path>
            <polygon id="Fill-792" fill="#C3EBF3" points="218.508 70.592 341.213 70.592 341.213 29.675 218.508 29.675"></polygon>
            <polygon id="Fill-793" fill="#E4E5E6" points="344.855 70.592 396.392 70.592 396.392 29.675 344.855 29.675"></polygon>
            <path d="M211.444,109.438 L403.805,109.438 L403.805,75.097 L211.444,75.097 L211.444,109.438 Z M243.332,97.555 L252.876,97.555 L252.876,95.792 L243.332,95.792 L243.332,97.555 Z M220.289,97.555 L241.597,97.555 L241.597,95.792 L220.289,95.792 L220.289,97.555 Z M388.081,96.093 L396.261,96.093 L396.261,88.909 L388.081,88.909 L388.081,96.093 Z M220.289,93.737 L254.958,93.737 L254.958,91.997 L220.289,91.997 L220.289,93.737 Z M220.289,90.369 L249.752,90.369 L249.752,86.981 L220.289,86.981 L220.289,90.369 Z" id="Fill-794" fill="#FFDBD3"></path>
            <polygon id="Fill-795" fill="#C3EBF3" points="219.974 151.939 275.055 151.939 275.055 115.413 219.974 115.413"></polygon>
            <polygon id="Fill-796" fill="#C3EBF3" points="280.37 151.939 335.451 151.939 335.451 115.413 280.37 115.413"></polygon>
            <polygon id="Fill-797" fill="#C3EBF3" points="341.311 151.939 396.393 151.939 396.393 115.413 341.311 115.413"></polygon>
            <polygon id="Fill-798" fill="#E4E5E6" points="219.974 163.385 261.328 163.385 261.328 157.297 219.974 157.297"></polygon>
            <polygon id="Fill-799" fill="#F1F2F2" points="219.974 169.434 268.635 169.434 268.635 166.309 219.974 166.309"></polygon>
            <polygon id="Fill-800" fill="#F1F2F2" points="219.974 176.293 249.882 176.293 249.882 173.129 219.974 173.129"></polygon>
            <polygon id="Fill-801" fill="#F1F2F2" points="252.316 176.293 265.712 176.293 265.712 173.129 252.316 173.129"></polygon>
            <polygon id="Fill-802" fill="#FFCABE" points="220.289 90.369 249.752 90.369 249.752 86.981 220.289 86.981"></polygon>
            <polygon id="Fill-803" fill="#F4C1BA" points="220.289 93.737 254.958 93.737 254.958 91.997 220.289 91.997"></polygon>
            <polygon id="Fill-804" fill="#F4C1BA" points="220.289 97.555 241.597 97.555 241.597 95.792 220.289 95.792"></polygon>
            <polygon id="Fill-805" fill="#F4C1BA" points="243.332 97.555 252.876 97.555 252.876 95.792 243.332 95.792"></polygon>
            <polygon id="Fill-806" fill="#E4E5E6" points="280.37 162.898 321.723 162.898 321.723 156.809 280.37 156.809"></polygon>
            <polygon id="Fill-807" fill="#F1F2F2" points="280.37 168.947 329.03 168.947 329.03 165.821 280.37 165.821"></polygon>
            <polygon id="Fill-808" fill="#F1F2F2" points="280.37 175.807 310.277 175.807 310.277 172.64 280.37 172.64"></polygon>
            <polygon id="Fill-809" fill="#F1F2F2" points="312.712 175.807 326.108 175.807 326.108 172.64 312.712 172.64"></polygon>
            <polygon id="Fill-810" fill="#E4E5E6" points="341.312 162.898 382.667 162.898 382.667 156.809 341.312 156.809"></polygon>
            <polygon id="Fill-811" fill="#F1F2F2" points="341.311 168.947 389.974 168.947 389.974 165.821 341.311 165.821"></polygon>
            <polygon id="Fill-812" fill="#F1F2F2" points="341.311 175.807 371.219 175.807 371.219 172.64 341.311 172.64"></polygon>
            <polygon id="Fill-813" fill="#F1F2F2" points="373.655 175.807 387.05 175.807 387.05 172.64 373.655 172.64"></polygon>
            <polygon id="Fill-814" fill="#FFCABE" points="388.081 96.093 396.261 96.093 396.261 88.909 388.081 88.909"></polygon>
            <path d="M507.785,166.795 C507.785,164.624 506.027,162.868 503.858,162.868 L421.885,162.868 C419.72,162.868 417.962,164.624 417.958,166.795 L417.958,188.16 L507.785,188.16 L507.785,166.795" id="Fill-815" fill="#343943"></path>
            <path d="M417.962,312.419 C417.962,314.595 419.72,316.347 421.885,316.347 L503.858,316.347 C506.027,316.347 507.785,314.595 507.785,312.419 L507.785,284.52 L417.962,284.52 L417.962,312.419" id="Fill-816" fill="#343943"></path>
            <polyline id="Fill-817" fill="#FFFFFF" points="417.958 188.16 417.962 284.52 507.785 284.52 507.785 188.16 417.958 188.16"></polyline>
            <path d="M470.288,301.086 C470.288,304.707 467.358,307.625 463.745,307.634 C460.135,307.625 457.204,304.707 457.204,301.086 C457.204,297.474 460.128,294.548 463.745,294.548 C467.358,294.548 470.288,297.474 470.288,301.086" id="Fill-818" fill="#262A33"></path>
            <path d="M480.751,174.421 C480.751,175.745 479.678,176.823 478.352,176.823 L446.522,176.823 C445.198,176.823 444.122,175.745 444.122,174.421 C444.122,173.094 445.198,172.02 446.522,172.02 L478.352,172.02 C479.678,172.02 480.751,173.094 480.751,174.421" id="Fill-819" fill="#262A33"></path>
            <polygon id="Fill-820" fill="#C3EBF3" points="422.046 219.274 503.15 219.274 503.15 191.611 422.046 191.611"></polygon>
            <path d="M417.962,256.404 L507.785,256.404 L507.785,222.84 L417.962,222.84 L417.962,256.404 Z M494.971,243.28 L503.15,243.28 L503.15,236.097 L494.971,236.097 L494.971,243.28 Z M441.368,242.708 L448.913,242.708 L448.913,241.315 L441.368,241.315 L441.368,242.708 Z M423.145,242.708 L439.995,242.708 L439.995,241.315 L423.145,241.315 L423.145,242.708 Z M423.145,239.689 L450.561,239.689 L450.561,238.313 L423.145,238.313 L423.145,239.689 Z M423.145,237.025 L446.443,237.025 L446.443,234.346 L423.145,234.346 L423.145,237.025 Z" id="Fill-821" fill="#FFDBD3"></path>
            <polygon id="Fill-822" fill="#E4E5E6" points="422.046 280.892 460.216 280.892 460.216 259.514 422.046 259.514"></polygon>
            <polygon id="Fill-823" fill="#E4E5E6" points="464.979 280.892 503.15 280.892 503.15 259.514 464.979 259.514"></polygon>
            <polygon id="Fill-824" fill="#FFCABE" points="423.145 237.025 446.443 237.025 446.443 234.346 423.145 234.346"></polygon>
            <polygon id="Fill-825" fill="#F4C1BA" points="423.145 239.689 450.561 239.689 450.561 238.313 423.145 238.313"></polygon>
            <polygon id="Fill-826" fill="#F4C1BA" points="423.145 242.708 439.995 242.708 439.995 241.315 423.145 241.315"></polygon>
            <polygon id="Fill-827" fill="#F4C1BA" points="441.368 242.708 448.913 242.708 448.913 241.315 441.368 241.315"></polygon>
            <polygon id="Fill-828" fill="#FFCABE" points="494.971 243.28 503.15 243.28 503.15 236.097 494.971 236.097"></polygon>
            <path d="M63.505,300.724 C63.505,305.302 67.216,309.012 71.795,309.012 L184.192,309.012 C188.767,309.012 192.479,305.302 192.479,300.724 L192.479,279.485 L63.505,279.485 L63.505,300.724" id="Fill-829" fill="#343943"></path>
            <polygon id="Fill-830" fill="#FFFFFF" points="63.505 279.485 192.479 279.485 192.479 144.476 63.505 144.476"></polygon>
            <path d="M192.479,130.833 C192.479,126.26 188.767,122.548 184.192,122.548 L71.795,122.548 C67.216,122.548 63.505,126.26 63.505,130.833 L63.505,144.477 L192.479,144.477 L192.479,130.833" id="Fill-831" fill="#343943"></path>
            <path d="M138.612,135.195 L117.378,135.195 C116.446,135.195 115.693,134.442 115.693,133.511 C115.693,132.582 116.446,131.829 117.378,131.829 L138.612,131.829 C139.538,131.829 140.292,132.582 140.292,133.511 C140.292,134.442 139.538,135.195 138.612,135.195" id="Fill-832" fill="#262A33"></path>
            <path d="M133.758,292.918 C133.758,296.104 131.174,298.684 127.992,298.684 C124.809,298.684 122.227,296.104 122.227,292.918 C122.227,289.733 124.809,287.152 127.992,287.152 C131.174,287.152 133.758,289.733 133.758,292.918" id="Fill-833" fill="#262A33"></path>
            <polygon id="Fill-834" fill="#C3EBF3" points="69.385 188.246 186.158 188.246 186.158 148.418 69.385 148.418"></polygon>
            <path d="M63.505,241.707 L192.479,241.707 L192.479,193.382 L63.505,193.382 L63.505,241.707 Z M174.381,222.813 L186.158,222.813 L186.158,212.469 L174.381,212.469 L174.381,222.813 Z M97.204,221.987 L108.07,221.987 L108.07,219.98 L97.204,219.98 L97.204,221.987 Z M70.969,221.987 L95.227,221.987 L95.227,219.98 L70.969,219.98 L70.969,221.987 Z M70.969,217.64 L110.441,217.64 L110.441,215.659 L70.969,215.659 L70.969,217.64 Z M70.969,213.808 L104.512,213.808 L104.512,209.949 L70.969,209.949 L70.969,213.808 Z" id="Fill-835" fill="#FFDBD3"></path>
            <polygon id="Fill-836" fill="#E4E5E6" points="69.385 276.964 124.342 276.964 124.342 246.184 69.385 246.184"></polygon>
            <polygon id="Fill-837" fill="#E4E5E6" points="131.2 276.964 186.158 276.964 186.158 246.184 131.2 246.184"></polygon>
            <polygon id="Fill-838" fill="#FFCABE" points="70.969 213.808 104.512 213.808 104.512 209.949 70.969 209.949"></polygon>
            <polygon id="Fill-839" fill="#F4C1BA" points="70.969 217.64 110.441 217.64 110.441 215.659 70.969 215.659"></polygon>
            <polygon id="Fill-840" fill="#F4C1BA" points="70.969 221.987 95.227 221.987 95.227 219.98 70.969 219.98"></polygon>
            <polygon id="Fill-841" fill="#F4C1BA" points="97.204 221.987 108.07 221.987 108.07 219.98 97.204 219.98"></polygon>
            <polygon id="Fill-842" fill="#FFCABE" points="174.381 222.813 186.158 222.813 186.158 212.469 174.381 212.469"></polygon>
            <polygon id="Fill-843" fill="#1F232C" points="192.479 198.116 196.542 198.116 196.542 185.981 192.479 185.981"></polygon>
            <polygon id="Fill-844" fill="#E3E4E4" points="192.479 260.574 196.542 260.574 196.542 198.116 192.479 198.116"></polygon>
            <polygon id="Fill-845" fill="#1F232C" points="413.899 198.064 417.962 198.064 417.962 185.93 413.899 185.93"></polygon>
            <polygon id="Fill-846" fill="#E3E4E4" points="413.899 260.522 417.962 260.522 417.962 198.064 413.899 198.064"></polygon>
        </g>
    </g>
</svg>