
<svg width="2865px" height="1412px" viewBox="0 0 2865 1412" version="1.1" xmlns="http://www.w3.org/2000/svg" xmlns:xlink="http://www.w3.org/1999/xlink">
    <defs></defs>
    <g id="Page-1" stroke="none" stroke-width="1" fill="none" fill-rule="evenodd">
        <g id="color_logo_transparent" transform="translate(-99.000000, 0.000000)" fill-rule="nonzero" fill="#FC7401">
            <g id="SvgjsG1009" transform="translate(99.472608, 0.445286)">
                <path d="M2847.43679,435.263976 C2794.04565,399.676356 2730.32575,383.154225 2683.12798,298.466172 C2660.25716,252.724527 2647.24914,229.601311 2593.25614,191.256766 C2592.13007,189.975378 2591.21757,187.237869 2590.36331,183.568442 C2579.72391,137.108444 2587.50931,-79.6013338 2514.4314,31.12218 C2482.55204,72.0877445 2442.0136,127.808678 2398.31053,182.15115 C2344.39519,249.152175 2285.64552,314.036969 2232.31263,346.304632 C2178.92149,379.348893 2098.42706,426.799054 1922.7411,379.077084 C1758.12166,329.588352 1326.06115,278.294029 1113.91388,519.175431 C935.781632,239.153471 566.412028,541.463805 359.972764,545.890415 C152.213282,550.317026 137.069614,501.973777 11.8625402,354.653065 C-92.0851528,853.578693 506.439218,1113.91388 1070.7156,564.917076 C1085.99517,552.200277 1058.73657,596.194575 1048.56313,621.647587 C1038.38969,647.061769 1072.71534,852.51087 887.651947,1004.21936 C859.71382,1016.91675 878.507501,1205.24185 809.64264,1365.88123 C804.555921,1391.33424 921.200997,1429.98942 926.462451,1381.56852 C929.879484,1350.1357 895.61208,1355.94077 897.145862,1333.05053 C903.475139,1238.69383 934.713809,1094.13004 1002.97681,1069.33714 C1102.09017,1028.68221 1215.27939,880.584902 1230.53955,829.775953 C1233.08291,827.193763 1332.54574,978.785767 1301.48181,1092.71275 C1273.50485,1151.28768 1318.13984,1154.99594 1349.78623,1260.51624 C1380.22888,1339.32156 1390.94594,1435.91099 1500.36865,1404.71115 C1511.08571,1359.47429 1505.45537,1358.95009 1457.11212,1338.62263 C1449.48204,1308.10231 1371.62806,1122.72828 1409.77845,1079.52999 C1492.07847,976.378312 1502.81494,881.419745 1507.86283,862.606649 C1507.86283,862.52899 1507.86283,862.4125 1507.86283,862.33484 C1507.90166,862.33484 1507.90166,862.33484 1507.94049,862.33484 C1522.77352,806.827471 1532.40334,727.012572 1506.34846,637.08248 C1506.34846,637.08248 1560.18614,720.586221 1530.75306,869.49896 C1557.85635,886.564709 1580.51361,919.667215 1875.27152,909.396702 C1875.27152,909.396702 1917.75145,934.111945 1952.05769,961.273473 C1924.72142,1090.88774 1990.77111,1363.06606 1990.77111,1363.06606 C1990.77111,1363.06606 2046.70561,1436.78466 2092.46667,1373.22008 C2087.61293,1344.1753 2086.09857,1347.55351 2064.48972,1327.49785 C2037.79415,1262.49657 2063.09184,1029.38115 2063.09184,1029.38115 C2063.09184,1029.38115 2088.07889,966.010724 2091.45709,932.151034 C2054.33569,905.455465 1983.29636,844.201268 1966.46359,764.017485 C1966.46359,764.017485 2013.29247,865.188839 2122.88991,935.490407 C2164.55442,960.943419 2246.05842,1015.46063 2349.19068,1078.36509 C2372.10033,1116.51549 2397.45627,1167.36327 2397.45627,1167.36327 C2397.45627,1167.36327 2397.45627,1352.91204 2486.45444,1307.17039 C2491.54116,1243.5864 2504.23855,1218.17222 2453.39077,1136.84295 C2417.82256,1055.5331 2369.51814,1009.77204 2354.29682,986.86239 C2323.7765,961.409378 2267.842,882.662303 2267.842,882.662303 C2267.842,882.662303 2495.17176,696.356351 2558.67809,538.765125 C2612.0304,508.264224 2771.09717,539.541724 2809.24756,524.281566 C2809.28639,524.223321 2900.82792,470.851597 2847.43679,435.263976 Z M240.629008,817.233889 C-30.5397313,693.735332 23.8609852,396.647622 23.8609852,396.647622 C153.028711,578.565792 241.89098,551.229529 308.969665,569.382516 C376.028935,587.554919 221.369368,791.450823 449.631046,855.24838 C449.650461,855.24838 303.844116,846.006859 240.629008,817.233889 Z M2548.427,19.5896941 C2548.427,19.5896941 2562.42518,31.7628737 2570.42414,169.453766 C2566.23051,172.035956 2532.00194,135.594077 2531.98252,99.2686878 C2531.96311,50.4206498 2537.1469,36.1118246 2548.427,19.5896941 Z M2794.56985,508.031245 C2644.49221,510.768754 2580.90822,488.693945 2536.00142,527.950993 C2493.52149,633.315978 2353.65612,786.325274 2274.8508,839.405773 C2320.12649,736.758882 2497.88986,479.996043 2436.1697,394.900276 C2572.46272,474.715174 2761.4091,469.861434 2829.49736,464.968864 C2833.14738,469.41489 2838.68064,473.142562 2843.98092,474.909324 C2816.70291,502.206757 2794.56985,508.031245 2794.56985,508.031245 Z" id="Shape"></path>
            </g>
        </g>
    </g>
</svg>