
<svg width="2149px" height="1059px" viewBox="0 0 2149 1059" version="1.1" xmlns="http://www.w3.org/2000/svg" xmlns:xlink="http://www.w3.org/1999/xlink">

    <defs></defs>
    <g id="Page-1" stroke="none" stroke-width="1" fill="none" fill-rule="evenodd">
        <g id="white_logo_transparent" fill="#FFFFFF">
            <path d="M2136.301,327.349 C2096.254,300.657 2048.465,288.267 2013.066,224.751 C1995.914,190.443 1986.16,173.103 1945.664,144.345 C1944.82,143.384 1944.133,141.329 1943.492,138.575 C1935.516,103.732 1941.352,-58.8 1886.547,24.243 C1862.637,54.966 1832.23,96.759 1799.453,137.513 C1759.02,187.767 1714.957,236.427 1674.957,260.63 C1634.914,285.411 1574.543,321.001 1442.777,285.208 C1319.312,248.091 995.266,209.622 836.156,390.282 C702.559,180.267 425.531,406.997 270.699,410.318 C114.883,413.638 103.523,377.38 9.617,266.892 C-68.344,641.083 380.551,836.337 803.758,424.587 C815.219,415.052 794.773,448.048 787.145,467.138 C779.516,486.196 805.258,640.282 666.461,754.064 C645.508,763.587 659.602,904.833 607.953,1025.314 C604.137,1044.403 691.621,1073.392 695.566,1037.075 C698.133,1013.501 672.43,1017.857 673.582,1000.689 C678.328,929.923 701.758,821.497 752.953,802.903 C827.289,772.411 912.18,661.341 923.625,623.232 C925.535,621.298 1000.129,734.989 976.832,820.435 C955.852,864.368 989.328,867.15 1013.062,946.286 C1035.895,1005.392 1043.93,1077.833 1125.996,1054.435 C1134.035,1020.505 1129.812,1020.114 1093.555,1004.868 C1087.832,981.978 1029.441,842.946 1058.055,810.548 C1119.781,733.185 1127.832,661.966 1131.617,647.857 C1131.617,647.798 1131.617,647.712 1131.617,647.653 C1131.648,647.653 1131.648,647.653 1131.676,647.653 C1142.801,606.021 1150.023,546.161 1130.484,478.712 C1130.484,478.712 1170.859,541.341 1148.785,653.025 C1169.113,665.825 1186.105,690.65 1407.176,682.95 C1407.176,682.95 1439.035,701.485 1464.766,721.857 C1444.262,819.068 1493.801,1023.2 1493.801,1023.2 C1493.801,1023.2 1535.75,1078.489 1570.07,1030.818 C1566.43,1009.032 1565.297,1011.568 1549.09,996.525 C1529.066,947.775 1548.039,772.939 1548.039,772.939 C1548.039,772.939 1566.781,725.407 1569.312,700.013 C1541.473,679.993 1488.195,634.052 1475.57,573.915 C1475.57,573.915 1510.691,649.794 1592.891,702.521 C1624.137,721.607 1685.266,762.497 1762.613,809.673 C1779.797,838.286 1798.812,876.423 1798.812,876.423 C1798.812,876.423 1798.812,1015.583 1865.562,981.278 C1869.379,933.591 1878.898,914.528 1840.766,853.532 C1814.09,792.552 1777.859,758.232 1766.445,741.048 C1743.555,721.958 1701.602,662.9 1701.602,662.9 C1701.602,662.9 1872.102,523.169 1919.73,404.974 C1959.746,382.099 2079.043,405.556 2107.656,394.11 C2107.688,394.068 2176.344,354.04 2136.301,327.349 Z M181.191,613.825 C-22.184,521.204 18.617,298.388 18.617,298.388 C115.492,434.825 182.141,414.321 232.449,427.939 C282.742,441.568 166.75,594.489 337.945,642.337 C337.961,642.337 228.605,635.407 181.191,613.825 Z M1912.043,15.595 C1912.043,15.595 1922.539,24.724 1928.539,127.989 C1925.395,129.927 1899.723,102.595 1899.707,75.353 C1899.695,38.716 1903.582,27.985 1912.043,15.595 Z M2096.648,381.923 C1984.09,383.978 1936.402,367.423 1902.723,396.864 C1870.863,475.888 1765.965,590.646 1706.859,630.454 C1740.816,553.47 1874.141,360.9 1827.848,297.075 C1930.07,356.939 2071.777,353.298 2122.844,349.626 C2125.582,352.962 2129.73,355.759 2133.707,357.083 C2113.25,377.556 2096.648,381.923 2096.648,381.923 Z" id="Fill-3"></path>
        </g>
    </g>
</svg>