<svg xmlns="http://www.w3.org/2000/svg" xmlns:xlink="http://www.w3.org/1999/xlink" width="714.082" height="1431.54" viewBox="0 0 714.082 1431.54"><defs><filter id="a" x="0" y="0" width="713.522" height="1431.54" filterUnits="userSpaceOnUse"><feOffset dy="3" input="SourceAlpha"/><feGaussianBlur stdDeviation="3" result="b"/><feFlood flood-opacity="0.443"/><feComposite operator="in" in2="b"/><feComposite in="SourceGraphic"/></filter></defs><g transform="translate(1.977 6)"><rect width="20.775" height="171.339" rx="2.29" transform="translate(691.33 320.644)" fill="#3a3768"/><rect width="11.656" height="56.414" rx="2.29" transform="translate(0.419 186.412)" fill="#3a3768"/><rect width="13.144" height="98.195" rx="2.29" transform="translate(0 289.68)" fill="#3a3768"/><rect width="12.516" height="99.034" rx="2.29" transform="translate(0.21 422.236)" fill="#3a3768"/><g transform="matrix(1, 0, 0, 1, -1.98, -6)" filter="url(#a)"><rect width="695.522" height="1413.54" rx="38.99" transform="translate(9 6)" fill="#3f3d56"/></g><rect width="97.126" height="19.727" rx="3.87" transform="translate(287.689 42.201)" fill="#e6e8ec"/><ellipse cx="11.195" cy="11.195" rx="11.195" ry="11.195" transform="translate(399.49 40.88)" fill="#e6e8ec"/><path d="M1005.3,142.86H925.639v9.581a45.492,45.492,0,0,1-45.492,45.492H626.357a45.471,45.471,0,0,1-45.492-45.492V142.86H506.17a55.24,55.24,0,0,0-55.24,55.24V1427.513a55.24,55.24,0,0,0,55.24,55.24H1005.3a55.219,55.219,0,0,0,55.219-55.24V198.1A55.219,55.219,0,0,0,1005.3,142.86Z" transform="translate(-400.952 -106.047)" fill="#2f2e41"/><rect width="327.038" height="113.206" rx="3.88" transform="translate(192.533 195.28)" fill="#536dfe"/><rect width="419.28" height="37.735" rx="3.88" transform="translate(146.937 962.562)" fill="#536dfe"/><rect width="419.28" height="37.735" rx="3.88" transform="translate(146.937 1021.261)" fill="#536dfe"/><rect width="419.28" height="37.735" rx="3.88" transform="translate(146.937 1079.96)" fill="#536dfe"/><rect width="419.28" height="37.735" rx="3.88" transform="translate(146.937 1138.659)" fill="#536dfe"/><rect width="159.326" height="37.735" rx="3.88" transform="translate(146.937 1197.359)" fill="#536dfe"/><rect width="570.221" height="431.858" rx="5.71" transform="translate(71.466 419.594)" fill="#536dfe" opacity="0.3"/></g></svg>